<?xml version="1.0" encoding="UTF-8"?>
<svg version="1.1" xmlns="http://www.w3.org/2000/svg" width="76" height="73">
<path d="M0 0 C25.08 0 50.16 0 76 0 C76 24.09 76 48.18 76 73 C50.92 73 25.84 73 0 73 C0 48.91 0 24.82 0 0 Z " fill="#050C1F" transform="translate(0,0)"/>
<path d="M0 0 C3.63 0 7.26 0 11 0 C11.79211929 1.89564426 12.58367576 3.79152371 13.375 5.6875 C13.81585938 6.74324219 14.25671875 7.79898437 14.7109375 8.88671875 C15.82757462 11.58356657 16.92291801 14.28716264 18 17 C23.74440061 15.30591778 28.33219459 12.50277972 33.390625 9.36328125 C34.25171875 8.91339844 35.1128125 8.46351562 36 8 C36.66 8.33 37.32 8.66 38 9 C30.3431258 15.25477126 22.68285807 21.4966877 14.875 27.5625 C9.44190706 31.79167773 4.19516259 36.2050063 -1.00976562 40.7109375 C-5.901883 44.94075457 -10.89303717 49.03110566 -16 53 C-16.70898438 53.56589844 -17.41796875 54.13179687 -18.1484375 54.71484375 C-20 56 -20 56 -22 56 C-22.95397287 51.23013567 -23.03998805 46.83855385 -23 42 C-22.01902344 41.45472656 -21.03804687 40.90945312 -20.02734375 40.34765625 C-10.57521224 35.07328197 -1.24960988 29.62153014 8 24 C7.34 21.69 6.68 19.38 6 17 C3.89767656 19.8684413 3.89767656 19.8684413 3 23 C0.66435639 24.50994018 -1.62367437 25.86915145 -4.0625 27.1875 C-4.72572266 27.55552734 -5.38894531 27.92355469 -6.07226562 28.30273438 C-7.71027457 29.21012062 -9.35456221 30.10615573 -11 31 C-10.34226414 27.11077924 -9.19785515 23.66545607 -7.75 20 C-7.30785156 18.87207031 -6.86570312 17.74414062 -6.41015625 16.58203125 C-5.94480469 15.39996094 -5.47945312 14.21789062 -5 13 C-4.05788831 10.56425006 -3.12286905 8.12585523 -2.1875 5.6875 C-1.45833333 3.79166667 -0.72916667 1.89583333 0 0 Z " fill="#BE1E1E" transform="translate(33,11)"/>
<path d="M0 0 C1.76381924 4.38386142 3.51883086 8.77104936 5.26464844 13.16210938 C5.86761812 14.6691332 6.48287737 16.17123448 7.1015625 17.671875 C9.11094549 22.66716354 9.11094549 22.66716354 8 26 C5.72172034 23.61115478 3.45377023 21.21273694 1.1875 18.8125 C0.54490234 18.13896484 -0.09769531 17.46542969 -0.75976562 16.77148438 C-3.96476488 13.36721056 -6.81637843 10.18053944 -9 6 C-7.8803014 4.99406757 -6.7540588 3.9954151 -5.625 3 C-4.68527344 2.1646875 -4.68527344 2.1646875 -3.7265625 1.3125 C-2 0 -2 0 0 0 Z " fill="#BA1D1E" transform="translate(55,39)"/>
</svg>
